<?xml version="1.0" encoding="UTF-8"?>
<svg width="28px" height="27px" viewBox="0 0 28 27" version="1.1" xmlns="http://www.w3.org/2000/svg" xmlns:xlink="http://www.w3.org/1999/xlink">
    <!-- Generator: Sketch 48.2 (47327) - http://www.bohemiancoding.com/sketch -->
    <title>medium</title>
    <desc>Created with Sketch.</desc>
    <defs></defs>
    <g id="ERCDEX_FINAL_LP" stroke="none" stroke-width="1" fill="none" fill-rule="evenodd" transform="translate(-428.000000, -8876.000000)">
        <g id="FOOTER_SECTION" transform="translate(0.000000, 7861.000000)" fill="#818499" fill-rule="nonzero">
            <g id="social" transform="translate(375.000000, 1014.000000)">
                <path d="M56.0102701,1 C54.6545154,1 53.5554592,2.10911486 53.5554592,3.45481092 L53.5554592,25.1454683 C53.5554592,26.5012229 54.6645741,27.6002792 56.0102701,27.6002792 L77.7009274,27.6002792 C79.0566821,27.6002792 80.1557384,26.4911643 80.1557384,25.1454683 L80.1557384,3.45481092 C80.1557384,2.09905629 79.0466235,1 77.7009274,1 L56.0102701,1 Z M75.6536605,7.30217078 L74.2276129,8.67038903 C74.1045717,8.76390035 74.0430511,8.91770186 74.0688897,9.07027296 L74.0688897,19.120279 C74.0430511,19.2728501 74.1045717,19.4266516 74.2276129,19.5201629 L75.6204394,20.8883812 L75.6204394,21.1886017 L68.6132425,21.1886017 L68.6132425,20.8883812 L70.0565158,19.4869418 C70.1980132,19.3454444 70.1980132,19.3036104 70.1980132,19.0870579 L70.1980132,10.9638772 L66.1856394,21.1553806 L65.6430276,21.1553806 L60.9711529,10.9638772 L60.9711529,17.7951252 C60.9317797,18.0818112 61.0277519,18.370958 61.2295394,18.5788977 L63.1071483,20.8563905 L63.1071483,21.156611 L57.7843856,21.156611 L57.7843856,20.8563905 L59.6619944,18.5788977 C59.8625516,18.370958 59.9523717,18.0793504 59.9043856,17.7951252 L59.9043856,9.89587948 C59.926533,9.67686613 59.842865,9.45908319 59.6792202,9.31266415 L58.009551,7.30217078 L58.009551,7.00195022 L63.1908163,7.00195022 L67.1958077,15.7846318 L70.7160167,7.00195022 L75.6548909,7.00195022 L75.6548909,7.30217078 L75.6536605,7.30217078 Z" id="medium"></path>
            </g>
        </g>
    </g>
</svg>
