<?xml version="1.0" encoding="UTF-8"?>
<svg width="28px" height="27px" viewBox="0 0 28 27" version="1.1" xmlns="http://www.w3.org/2000/svg" xmlns:xlink="http://www.w3.org/1999/xlink">
    <!-- Generator: Sketch 48.2 (47327) - http://www.bohemiancoding.com/sketch -->
    <title>slack</title>
    <desc>Created with Sketch.</desc>
    <defs></defs>
    <g id="ERCDEX_FINAL_LP" stroke="none" stroke-width="1" fill="none" fill-rule="evenodd" transform="translate(-536.000000, -8875.000000)">
        <g id="FOOTER_SECTION" transform="translate(0.000000, 7861.000000)" fill-rule="nonzero">
            <g id="social" transform="translate(375.000000, 1014.000000)">
                <g id="slack" transform="translate(161.510639, 0.000000)">
                    <rect id="Rectangle-path" fill="#444444" transform="translate(13.492921, 13.480294) rotate(-108.518296) translate(-13.492921, -13.480294) " x="11.6578078" y="11.5819013" width="3.67022625" height="3.79678577"></rect>
                    <rect id="Rectangle-path" fill="#818499" transform="translate(13.492963, 13.480336) rotate(-108.518296) translate(-13.492963, -13.480336) " x="11.65785" y="11.5819435" width="3.67022625" height="3.79678577"></rect>
                    <path d="M25.8609375,9.7875 C23.0765625,0.50625 19.06875,-1.6453125 9.7875,1.1390625 C0.50625,3.9234375 -1.6453125,7.93125 1.1390625,17.2125 C3.9234375,26.49375 7.93125,28.6453125 17.2125,25.8609375 C26.49375,23.0765625 28.6453125,19.06875 25.8609375,9.7875 Z M21.178125,15.8203125 L19.4484375,16.4109375 L20.0390625,18.225 C20.2921875,18.9421875 19.8703125,19.74375 19.153125,19.996875 C18.984375,20.0390625 18.815625,20.08125 18.6890625,20.08125 C18.0984375,20.08125 17.5921875,19.7015625 17.38125,19.1109375 L16.790625,17.296875 L13.1625,18.5203125 L13.753125,20.334375 C14.00625,21.0515625 13.584375,21.853125 12.8671875,22.10625 C12.6984375,22.1484375 12.5296875,22.190625 12.403125,22.190625 C11.8125,22.190625 11.30625,21.8109375 11.0953125,21.2203125 L10.5046875,19.40625 L8.775,19.996875 C8.60625,20.0390625 8.4375,20.08125 8.3109375,20.08125 C7.7203125,20.08125 7.2140625,19.7015625 7.003125,19.1109375 C6.75,18.39375 7.171875,17.5921875 7.8890625,17.3390625 L9.61875,16.7484375 L8.4375,13.2890625 L6.7078125,13.8796875 C6.5390625,13.921875 6.3703125,13.9640625 6.24375,13.9640625 C5.653125,13.9640625 5.146875,13.584375 4.9359375,12.99375 C4.6828125,12.2765625 5.1046875,11.475 5.821875,11.221875 L7.5515625,10.63125 L6.9609375,8.8171875 C6.7078125,8.1 7.1296875,7.2984375 7.846875,7.0453125 C8.5640625,6.7921875 9.365625,7.2140625 9.61875,7.93125 L10.209375,9.7453125 L13.8375,8.521875 L13.246875,6.7078125 C12.99375,5.990625 13.415625,5.1890625 14.1328125,4.9359375 C14.85,4.6828125 15.6515625,5.1046875 15.9046875,5.821875 L16.4953125,7.6359375 L18.225,7.0453125 C18.9421875,6.7921875 19.74375,7.2140625 19.996875,7.93125 C20.25,8.6484375 19.828125,9.45 19.1109375,9.703125 L17.38125,10.29375 L18.5625,13.753125 L20.2921875,13.1625 C21.009375,12.909375 21.8109375,13.33125 22.0640625,14.0484375 C22.3171875,14.765625 21.8953125,15.5671875 21.178125,15.8203125 Z" id="Shape" fill="#818499"></path>
                </g>
            </g>
        </g>
    </g>
</svg>
