<?xml version="1.0" encoding="UTF-8"?>
<svg width="27px" height="27px" viewBox="0 0 27 27" version="1.1" xmlns="http://www.w3.org/2000/svg" xmlns:xlink="http://www.w3.org/1999/xlink">
    <!-- Generator: Sketch 48.2 (47327) - http://www.bohemiancoding.com/sketch -->
    <title>twitter</title>
    <desc>Created with Sketch.</desc>
    <defs></defs>
    <g id="ERCDEX_FINAL_LP" stroke="none" stroke-width="1" fill="none" fill-rule="evenodd" transform="translate(-482.000000, -8876.000000)">
        <g id="FOOTER_SECTION" transform="translate(0.000000, 7861.000000)" fill="#818499" fill-rule="nonzero">
            <g id="social" transform="translate(375.000000, 1014.000000)">
                <path d="M130.383252,1 L110.777637,1 C108.973655,1 107.510639,2.46301536 107.510639,4.26699793 L107.510639,23.8714037 C107.510639,25.6753863 108.973655,27.1384016 110.777637,27.1384016 L130.382043,27.1384016 C132.186025,27.1384016 133.649041,25.6753863 133.649041,23.8714037 L133.649041,4.26699793 C133.65025,2.46301536 132.187235,1 130.383252,1 Z M127.076354,10.7381204 C127.082399,10.8820037 127.086026,11.025887 127.086026,11.1709795 C127.086026,15.599926 123.715046,20.7071796 117.549826,20.7071796 C115.65637,20.7071796 113.895915,20.152201 112.412345,19.2018456 C112.674721,19.2332823 112.941933,19.2477915 113.211563,19.2477915 C114.782188,19.2477915 116.227067,18.7121586 117.374506,17.8125856 C115.907864,17.7847762 114.669742,16.8162842 114.242928,15.4850611 C114.447267,15.5237524 114.657651,15.5455163 114.872871,15.5455163 C115.178774,15.5455163 115.475005,15.5044068 115.756726,15.4270242 C114.223582,15.1199118 113.067679,13.7645067 113.067679,12.1406806 C113.067679,12.1261713 113.067679,12.1116621 113.068888,12.0983619 C113.519884,12.3510646 114.036171,12.5022025 114.586313,12.51913 C113.68674,11.9194146 113.095489,10.8928857 113.095489,9.72972799 C113.095489,9.11550336 113.261136,8.53997005 113.548903,8.04544668 C115.201747,10.0731134 117.671946,11.4079638 120.457721,11.5470107 C120.399684,11.3015627 120.370665,11.0464418 120.370665,10.7828572 C120.370665,8.93292872 121.872372,7.43122205 123.723509,7.43122205 C124.687165,7.43122205 125.558929,7.83868996 126.170735,8.4903968 C126.933679,8.34046795 127.650678,8.06116502 128.298757,7.67667008 C128.048473,8.45896011 127.516467,9.11550336 126.82486,9.5302259 C127.503167,9.44921595 128.148828,9.26905952 128.749753,9.00305673 C128.299966,9.67531833 127.731688,10.2653609 127.076354,10.7381204 Z" id="twitter"></path>
            </g>
        </g>
    </g>
</svg>